<?xml version="1.0" standalone="no"?>
<!DOCTYPE svg PUBLIC "-//W3C//DTD SVG 20010904//EN"
 "http://www.w3.org/TR/2001/REC-SVG-20010904/DTD/svg10.dtd">
<svg version="1.0" xmlns="http://www.w3.org/2000/svg"
 width="225.000000pt" height="225.000000pt" viewBox="0 0 225.000000 225.000000"
 preserveAspectRatio="xMidYMid meet">
<metadata>
Created by potrace 1.16, written by Peter Selinger 2001-2019
</metadata>
<g transform="translate(0.000000,225.000000) scale(0.100000,-0.100000)"
fill="#000000" stroke="none">
<path d="M820 1429 l0 -309 130 0 130 0 0 -54 c0 -45 3 -56 19 -61 11 -3 34
-19 50 -35 l31 -28 0 90 0 89 31 -3 c30 -3 33 -8 61 -83 16 -44 40 -110 54
-147 l26 -68 55 0 c40 0 54 3 50 13 -3 6 -30 74 -60 150 l-55 138 23 9 c45 17
55 46 53 150 0 52 -3 80 -5 63 -2 -18 -9 -33 -15 -33 -6 0 -17 -8 -24 -17 -8
-11 -13 -13 -14 -6 0 7 -6 10 -14 7 -11 -4 -16 5 -19 38 -2 23 -4 4 -5 -44
l-2 -88 -70 0 -70 0 0 230 c0 141 -4 238 -11 253 -21 46 -44 52 -201 53 l-148
2 0 -309z m254 215 c8 -20 8 -408 0 -428 -5 -13 -22 -16 -80 -16 l-74 0 0 230
0 230 74 0 c58 0 75 -3 80 -16z"/>
</g>
</svg>
